<mxfile host="app.diagrams.net" agent="Mozilla/5.0 (Windows NT 10.0; Win64; x64) AppleWebKit/537.36 (KHTML, like Gecko) Chrome/141.0.0.0 Safari/537.36 Edg/141.0.0.0" version="28.2.7">
  <diagram name="Page-1" id="WSaxype1t8Z1bDHZnrFc">
    <mxGraphModel dx="1418" dy="756" grid="1" gridSize="10" guides="1" tooltips="1" connect="1" arrows="1" fold="1" page="1" pageScale="1" pageWidth="850" pageHeight="1100" math="0" shadow="0">
      <root>
        <mxCell id="0" />
        <mxCell id="1" parent="0" />
        <mxCell id="EQvhAUE2dKe5d7yDT0TL-17" value="" style="whiteSpace=wrap;html=1;aspect=fixed;" vertex="1" parent="1">
          <mxGeometry width="1200" height="1200" as="geometry" />
        </mxCell>
        <mxCell id="EQvhAUE2dKe5d7yDT0TL-6" value="ctk.CTk" style="swimlane;fontStyle=0;childLayout=stackLayout;horizontal=1;startSize=26;horizontalStack=0;resizeParent=1;resizeParentMax=0;resizeLast=0;collapsible=1;marginBottom=0;align=center;fontSize=14;fillColor=#3FFF46;" vertex="1" parent="1">
          <mxGeometry x="60" y="30" width="240" height="116" as="geometry" />
        </mxCell>
        <mxCell id="EQvhAUE2dKe5d7yDT0TL-7" value="title: string" style="text;strokeColor=none;fillColor=none;spacingLeft=4;spacingRight=4;overflow=hidden;rotatable=0;points=[[0,0.5],[1,0.5]];portConstraint=eastwest;fontSize=12;whiteSpace=wrap;html=1;" vertex="1" parent="EQvhAUE2dKe5d7yDT0TL-6">
          <mxGeometry y="26" width="240" height="30" as="geometry" />
        </mxCell>
        <mxCell id="EQvhAUE2dKe5d7yDT0TL-12" value="geometry: string" style="text;strokeColor=none;fillColor=none;spacingLeft=4;spacingRight=4;overflow=hidden;rotatable=0;points=[[0,0.5],[1,0.5]];portConstraint=eastwest;fontSize=12;whiteSpace=wrap;html=1;" vertex="1" parent="EQvhAUE2dKe5d7yDT0TL-6">
          <mxGeometry y="56" width="240" height="30" as="geometry" />
        </mxCell>
        <mxCell id="EQvhAUE2dKe5d7yDT0TL-8" value="..." style="text;strokeColor=none;fillColor=none;spacingLeft=4;spacingRight=4;overflow=hidden;rotatable=0;points=[[0,0.5],[1,0.5]];portConstraint=eastwest;fontSize=12;whiteSpace=wrap;html=1;" vertex="1" parent="EQvhAUE2dKe5d7yDT0TL-6">
          <mxGeometry y="86" width="240" height="30" as="geometry" />
        </mxCell>
        <mxCell id="EQvhAUE2dKe5d7yDT0TL-13" value="App_Window" style="swimlane;fontStyle=0;childLayout=stackLayout;horizontal=1;startSize=26;horizontalStack=0;resizeParent=1;resizeParentMax=0;resizeLast=0;collapsible=1;marginBottom=0;align=center;fontSize=14;fillColor=#3FFF46;" vertex="1" parent="1">
          <mxGeometry x="60" y="200" width="240" height="486" as="geometry" />
        </mxCell>
        <mxCell id="EQvhAUE2dKe5d7yDT0TL-14" value="title: str" style="text;strokeColor=none;fillColor=none;spacingLeft=4;spacingRight=4;overflow=hidden;rotatable=0;points=[[0,0.5],[1,0.5]];portConstraint=eastwest;fontSize=12;whiteSpace=wrap;html=1;" vertex="1" parent="EQvhAUE2dKe5d7yDT0TL-13">
          <mxGeometry y="26" width="240" height="30" as="geometry" />
        </mxCell>
        <mxCell id="EQvhAUE2dKe5d7yDT0TL-15" value="geometry: str" style="text;strokeColor=none;fillColor=none;spacingLeft=4;spacingRight=4;overflow=hidden;rotatable=0;points=[[0,0.5],[1,0.5]];portConstraint=eastwest;fontSize=12;whiteSpace=wrap;html=1;" vertex="1" parent="EQvhAUE2dKe5d7yDT0TL-13">
          <mxGeometry y="56" width="240" height="30" as="geometry" />
        </mxCell>
        <mxCell id="EQvhAUE2dKe5d7yDT0TL-18" value="minsize: tuple[int, int]" style="text;strokeColor=none;fillColor=none;spacingLeft=4;spacingRight=4;overflow=hidden;rotatable=0;points=[[0,0.5],[1,0.5]];portConstraint=eastwest;fontSize=12;whiteSpace=wrap;html=1;" vertex="1" parent="EQvhAUE2dKe5d7yDT0TL-13">
          <mxGeometry y="86" width="240" height="30" as="geometry" />
        </mxCell>
        <mxCell id="EQvhAUE2dKe5d7yDT0TL-16" value="header: Frame" style="text;strokeColor=none;fillColor=none;spacingLeft=4;spacingRight=4;overflow=hidden;rotatable=0;points=[[0,0.5],[1,0.5]];portConstraint=eastwest;fontSize=12;whiteSpace=wrap;html=1;" vertex="1" parent="EQvhAUE2dKe5d7yDT0TL-13">
          <mxGeometry y="116" width="240" height="30" as="geometry" />
        </mxCell>
        <mxCell id="EQvhAUE2dKe5d7yDT0TL-20" value="header_label: ctk.CTkLabel" style="text;strokeColor=none;fillColor=none;spacingLeft=4;spacingRight=4;overflow=hidden;rotatable=0;points=[[0,0.5],[1,0.5]];portConstraint=eastwest;fontSize=12;whiteSpace=wrap;html=1;" vertex="1" parent="EQvhAUE2dKe5d7yDT0TL-13">
          <mxGeometry y="146" width="240" height="30" as="geometry" />
        </mxCell>
        <mxCell id="EQvhAUE2dKe5d7yDT0TL-21" value="body: Frame" style="text;strokeColor=none;fillColor=none;spacingLeft=4;spacingRight=4;overflow=hidden;rotatable=0;points=[[0,0.5],[1,0.5]];portConstraint=eastwest;fontSize=12;whiteSpace=wrap;html=1;" vertex="1" parent="EQvhAUE2dKe5d7yDT0TL-13">
          <mxGeometry y="176" width="240" height="30" as="geometry" />
        </mxCell>
        <mxCell id="EQvhAUE2dKe5d7yDT0TL-22" value="table_container: Frame" style="text;strokeColor=none;fillColor=none;spacingLeft=4;spacingRight=4;overflow=hidden;rotatable=0;points=[[0,0.5],[1,0.5]];portConstraint=eastwest;fontSize=12;whiteSpace=wrap;html=1;" vertex="1" parent="EQvhAUE2dKe5d7yDT0TL-13">
          <mxGeometry y="206" width="240" height="30" as="geometry" />
        </mxCell>
        <mxCell id="EQvhAUE2dKe5d7yDT0TL-23" value="table: Table&amp;nbsp;" style="text;strokeColor=none;fillColor=none;spacingLeft=4;spacingRight=4;overflow=hidden;rotatable=0;points=[[0,0.5],[1,0.5]];portConstraint=eastwest;fontSize=12;whiteSpace=wrap;html=1;" vertex="1" parent="EQvhAUE2dKe5d7yDT0TL-13">
          <mxGeometry y="236" width="240" height="30" as="geometry" />
        </mxCell>
        <mxCell id="EQvhAUE2dKe5d7yDT0TL-24" value="menu: Frame" style="text;strokeColor=none;fillColor=none;spacingLeft=4;spacingRight=4;overflow=hidden;rotatable=0;points=[[0,0.5],[1,0.5]];portConstraint=eastwest;fontSize=12;whiteSpace=wrap;html=1;" vertex="1" parent="EQvhAUE2dKe5d7yDT0TL-13">
          <mxGeometry y="266" width="240" height="30" as="geometry" />
        </mxCell>
        <mxCell id="EQvhAUE2dKe5d7yDT0TL-25" value="menu_text_input_1: ctk.CTkEntry" style="text;strokeColor=none;fillColor=none;spacingLeft=4;spacingRight=4;overflow=hidden;rotatable=0;points=[[0,0.5],[1,0.5]];portConstraint=eastwest;fontSize=12;whiteSpace=wrap;html=1;" vertex="1" parent="EQvhAUE2dKe5d7yDT0TL-13">
          <mxGeometry y="296" width="240" height="30" as="geometry" />
        </mxCell>
        <mxCell id="EQvhAUE2dKe5d7yDT0TL-27" value="menu_dropdown_2: ctk.CTkOptionMenu" style="text;strokeColor=none;fillColor=none;spacingLeft=4;spacingRight=4;overflow=hidden;rotatable=0;points=[[0,0.5],[1,0.5]];portConstraint=eastwest;fontSize=12;whiteSpace=wrap;html=1;" vertex="1" parent="EQvhAUE2dKe5d7yDT0TL-13">
          <mxGeometry y="326" width="240" height="30" as="geometry" />
        </mxCell>
        <mxCell id="EQvhAUE2dKe5d7yDT0TL-26" value="menu_dropdown_3: ctk.CTkOptionMenu" style="text;strokeColor=none;fillColor=none;spacingLeft=4;spacingRight=4;overflow=hidden;rotatable=0;points=[[0,0.5],[1,0.5]];portConstraint=eastwest;fontSize=12;whiteSpace=wrap;html=1;" vertex="1" parent="EQvhAUE2dKe5d7yDT0TL-13">
          <mxGeometry y="356" width="240" height="30" as="geometry" />
        </mxCell>
        <mxCell id="EQvhAUE2dKe5d7yDT0TL-29" value="menu_button_addItem: ctk.CTkButton" style="text;strokeColor=none;fillColor=none;spacingLeft=4;spacingRight=4;overflow=hidden;rotatable=0;points=[[0,0.5],[1,0.5]];portConstraint=eastwest;fontSize=12;whiteSpace=wrap;html=1;" vertex="1" parent="EQvhAUE2dKe5d7yDT0TL-13">
          <mxGeometry y="386" width="240" height="30" as="geometry" />
        </mxCell>
        <mxCell id="EQvhAUE2dKe5d7yDT0TL-32" value="" style="line;strokeWidth=1;rotatable=0;dashed=0;labelPosition=right;align=left;verticalAlign=middle;spacingTop=0;spacingLeft=6;points=[];portConstraint=eastwest;" vertex="1" parent="EQvhAUE2dKe5d7yDT0TL-13">
          <mxGeometry y="416" width="240" height="10" as="geometry" />
        </mxCell>
        <mxCell id="EQvhAUE2dKe5d7yDT0TL-33" value="__init__(self)" style="text;strokeColor=none;fillColor=none;spacingLeft=4;spacingRight=4;overflow=hidden;rotatable=0;points=[[0,0.5],[1,0.5]];portConstraint=eastwest;fontSize=12;whiteSpace=wrap;html=1;" vertex="1" parent="EQvhAUE2dKe5d7yDT0TL-13">
          <mxGeometry y="426" width="240" height="30" as="geometry" />
        </mxCell>
        <mxCell id="EQvhAUE2dKe5d7yDT0TL-28" value="add_item()" style="text;strokeColor=none;fillColor=none;spacingLeft=4;spacingRight=4;overflow=hidden;rotatable=0;points=[[0,0.5],[1,0.5]];portConstraint=eastwest;fontSize=12;whiteSpace=wrap;html=1;" vertex="1" parent="EQvhAUE2dKe5d7yDT0TL-13">
          <mxGeometry y="456" width="240" height="30" as="geometry" />
        </mxCell>
        <mxCell id="EQvhAUE2dKe5d7yDT0TL-34" value="ctk.CTkFrame" style="swimlane;fontStyle=0;childLayout=stackLayout;horizontal=1;startSize=26;horizontalStack=0;resizeParent=1;resizeParentMax=0;resizeLast=0;collapsible=1;marginBottom=0;align=center;fontSize=14;fillColor=#56A5FF;" vertex="1" parent="1">
          <mxGeometry x="470" y="30" width="240" height="116" as="geometry" />
        </mxCell>
        <mxCell id="EQvhAUE2dKe5d7yDT0TL-35" value="parent: class" style="text;strokeColor=none;fillColor=none;spacingLeft=4;spacingRight=4;overflow=hidden;rotatable=0;points=[[0,0.5],[1,0.5]];portConstraint=eastwest;fontSize=12;whiteSpace=wrap;html=1;" vertex="1" parent="EQvhAUE2dKe5d7yDT0TL-34">
          <mxGeometry y="26" width="240" height="30" as="geometry" />
        </mxCell>
        <mxCell id="EQvhAUE2dKe5d7yDT0TL-36" value="side: string" style="text;strokeColor=none;fillColor=none;spacingLeft=4;spacingRight=4;overflow=hidden;rotatable=0;points=[[0,0.5],[1,0.5]];portConstraint=eastwest;fontSize=12;whiteSpace=wrap;html=1;" vertex="1" parent="EQvhAUE2dKe5d7yDT0TL-34">
          <mxGeometry y="56" width="240" height="30" as="geometry" />
        </mxCell>
        <mxCell id="EQvhAUE2dKe5d7yDT0TL-37" value="..." style="text;strokeColor=none;fillColor=none;spacingLeft=4;spacingRight=4;overflow=hidden;rotatable=0;points=[[0,0.5],[1,0.5]];portConstraint=eastwest;fontSize=12;whiteSpace=wrap;html=1;" vertex="1" parent="EQvhAUE2dKe5d7yDT0TL-34">
          <mxGeometry y="86" width="240" height="30" as="geometry" />
        </mxCell>
        <mxCell id="EQvhAUE2dKe5d7yDT0TL-38" value="Frame" style="swimlane;fontStyle=0;childLayout=stackLayout;horizontal=1;startSize=26;horizontalStack=0;resizeParent=1;resizeParentMax=0;resizeLast=0;collapsible=1;marginBottom=0;align=center;fontSize=14;fillColor=#56A5FF;" vertex="1" parent="1">
          <mxGeometry x="350" y="200" width="240" height="306" as="geometry" />
        </mxCell>
        <mxCell id="EQvhAUE2dKe5d7yDT0TL-39" value="parent: class" style="text;strokeColor=none;fillColor=none;spacingLeft=4;spacingRight=4;overflow=hidden;rotatable=0;points=[[0,0.5],[1,0.5]];portConstraint=eastwest;fontSize=12;whiteSpace=wrap;html=1;" vertex="1" parent="EQvhAUE2dKe5d7yDT0TL-38">
          <mxGeometry y="26" width="240" height="30" as="geometry" />
        </mxCell>
        <mxCell id="EQvhAUE2dKe5d7yDT0TL-40" value="side: str" style="text;strokeColor=none;fillColor=none;spacingLeft=4;spacingRight=4;overflow=hidden;rotatable=0;points=[[0,0.5],[1,0.5]];portConstraint=eastwest;fontSize=12;whiteSpace=wrap;html=1;" vertex="1" parent="EQvhAUE2dKe5d7yDT0TL-38">
          <mxGeometry y="56" width="240" height="30" as="geometry" />
        </mxCell>
        <mxCell id="EQvhAUE2dKe5d7yDT0TL-41" value="colour_background: str" style="text;strokeColor=none;fillColor=none;spacingLeft=4;spacingRight=4;overflow=hidden;rotatable=0;points=[[0,0.5],[1,0.5]];portConstraint=eastwest;fontSize=12;whiteSpace=wrap;html=1;" vertex="1" parent="EQvhAUE2dKe5d7yDT0TL-38">
          <mxGeometry y="86" width="240" height="30" as="geometry" />
        </mxCell>
        <mxCell id="EQvhAUE2dKe5d7yDT0TL-42" value="width: int" style="text;strokeColor=none;fillColor=none;spacingLeft=4;spacingRight=4;overflow=hidden;rotatable=0;points=[[0,0.5],[1,0.5]];portConstraint=eastwest;fontSize=12;whiteSpace=wrap;html=1;" vertex="1" parent="EQvhAUE2dKe5d7yDT0TL-38">
          <mxGeometry y="116" width="240" height="30" as="geometry" />
        </mxCell>
        <mxCell id="EQvhAUE2dKe5d7yDT0TL-43" value="height: int" style="text;strokeColor=none;fillColor=none;spacingLeft=4;spacingRight=4;overflow=hidden;rotatable=0;points=[[0,0.5],[1,0.5]];portConstraint=eastwest;fontSize=12;whiteSpace=wrap;html=1;" vertex="1" parent="EQvhAUE2dKe5d7yDT0TL-38">
          <mxGeometry y="146" width="240" height="30" as="geometry" />
        </mxCell>
        <mxCell id="EQvhAUE2dKe5d7yDT0TL-44" value="corner_radius: int" style="text;strokeColor=none;fillColor=none;spacingLeft=4;spacingRight=4;overflow=hidden;rotatable=0;points=[[0,0.5],[1,0.5]];portConstraint=eastwest;fontSize=12;whiteSpace=wrap;html=1;" vertex="1" parent="EQvhAUE2dKe5d7yDT0TL-38">
          <mxGeometry y="176" width="240" height="30" as="geometry" />
        </mxCell>
        <mxCell id="EQvhAUE2dKe5d7yDT0TL-45" value="padding_vertical: tuple[int, int]" style="text;strokeColor=none;fillColor=none;spacingLeft=4;spacingRight=4;overflow=hidden;rotatable=0;points=[[0,0.5],[1,0.5]];portConstraint=eastwest;fontSize=12;whiteSpace=wrap;html=1;" vertex="1" parent="EQvhAUE2dKe5d7yDT0TL-38">
          <mxGeometry y="206" width="240" height="30" as="geometry" />
        </mxCell>
        <mxCell id="EQvhAUE2dKe5d7yDT0TL-46" value="padding_horizontal: tuple[int, int]" style="text;strokeColor=none;fillColor=none;spacingLeft=4;spacingRight=4;overflow=hidden;rotatable=0;points=[[0,0.5],[1,0.5]];portConstraint=eastwest;fontSize=12;whiteSpace=wrap;html=1;" vertex="1" parent="EQvhAUE2dKe5d7yDT0TL-38">
          <mxGeometry y="236" width="240" height="30" as="geometry" />
        </mxCell>
        <mxCell id="EQvhAUE2dKe5d7yDT0TL-52" value="" style="line;strokeWidth=1;rotatable=0;dashed=0;labelPosition=right;align=left;verticalAlign=middle;spacingTop=0;spacingLeft=6;points=[];portConstraint=eastwest;" vertex="1" parent="EQvhAUE2dKe5d7yDT0TL-38">
          <mxGeometry y="266" width="240" height="10" as="geometry" />
        </mxCell>
        <mxCell id="EQvhAUE2dKe5d7yDT0TL-53" value="__init__(self)" style="text;strokeColor=none;fillColor=none;spacingLeft=4;spacingRight=4;overflow=hidden;rotatable=0;points=[[0,0.5],[1,0.5]];portConstraint=eastwest;fontSize=12;whiteSpace=wrap;html=1;" vertex="1" parent="EQvhAUE2dKe5d7yDT0TL-38">
          <mxGeometry y="276" width="240" height="30" as="geometry" />
        </mxCell>
        <mxCell id="EQvhAUE2dKe5d7yDT0TL-55" value="Table" style="swimlane;fontStyle=0;childLayout=stackLayout;horizontal=1;startSize=26;horizontalStack=0;resizeParent=1;resizeParentMax=0;resizeLast=0;collapsible=1;marginBottom=0;align=center;fontSize=14;fillColor=#56A5FF;" vertex="1" parent="1">
          <mxGeometry x="610" y="200" width="240" height="186" as="geometry" />
        </mxCell>
        <mxCell id="EQvhAUE2dKe5d7yDT0TL-72" value="parent: class" style="text;strokeColor=none;fillColor=none;spacingLeft=4;spacingRight=4;overflow=hidden;rotatable=0;points=[[0,0.5],[1,0.5]];portConstraint=eastwest;fontSize=12;whiteSpace=wrap;html=1;" vertex="1" parent="EQvhAUE2dKe5d7yDT0TL-55">
          <mxGeometry y="26" width="240" height="30" as="geometry" />
        </mxCell>
        <mxCell id="EQvhAUE2dKe5d7yDT0TL-74" value="verticle_Scroll: ttk.Scrollbar" style="text;strokeColor=none;fillColor=none;spacingLeft=4;spacingRight=4;overflow=hidden;rotatable=0;points=[[0,0.5],[1,0.5]];portConstraint=eastwest;fontSize=12;whiteSpace=wrap;html=1;" vertex="1" parent="EQvhAUE2dKe5d7yDT0TL-55">
          <mxGeometry y="56" width="240" height="30" as="geometry" />
        </mxCell>
        <mxCell id="EQvhAUE2dKe5d7yDT0TL-73" value="horizontal_Scroll: ttk.Scrollbar" style="text;strokeColor=none;fillColor=none;spacingLeft=4;spacingRight=4;overflow=hidden;rotatable=0;points=[[0,0.5],[1,0.5]];portConstraint=eastwest;fontSize=12;whiteSpace=wrap;html=1;" vertex="1" parent="EQvhAUE2dKe5d7yDT0TL-55">
          <mxGeometry y="86" width="240" height="30" as="geometry" />
        </mxCell>
        <mxCell id="EQvhAUE2dKe5d7yDT0TL-69" value="" style="line;strokeWidth=1;rotatable=0;dashed=0;labelPosition=right;align=left;verticalAlign=middle;spacingTop=0;spacingLeft=6;points=[];portConstraint=eastwest;" vertex="1" parent="EQvhAUE2dKe5d7yDT0TL-55">
          <mxGeometry y="116" width="240" height="10" as="geometry" />
        </mxCell>
        <mxCell id="EQvhAUE2dKe5d7yDT0TL-70" value="__init__(self)" style="text;strokeColor=none;fillColor=none;spacingLeft=4;spacingRight=4;overflow=hidden;rotatable=0;points=[[0,0.5],[1,0.5]];portConstraint=eastwest;fontSize=12;whiteSpace=wrap;html=1;" vertex="1" parent="EQvhAUE2dKe5d7yDT0TL-55">
          <mxGeometry y="126" width="240" height="30" as="geometry" />
        </mxCell>
        <mxCell id="EQvhAUE2dKe5d7yDT0TL-71" value="load_csv_file()" style="text;strokeColor=none;fillColor=none;spacingLeft=4;spacingRight=4;overflow=hidden;rotatable=0;points=[[0,0.5],[1,0.5]];portConstraint=eastwest;fontSize=12;whiteSpace=wrap;html=1;" vertex="1" parent="EQvhAUE2dKe5d7yDT0TL-55">
          <mxGeometry y="156" width="240" height="30" as="geometry" />
        </mxCell>
        <mxCell id="EQvhAUE2dKe5d7yDT0TL-75" value="" style="endArrow=block;html=1;rounded=0;exitX=0.5;exitY=0;exitDx=0;exitDy=0;entryX=0.5;entryY=1.067;entryDx=0;entryDy=0;entryPerimeter=0;startArrow=none;startFill=0;endFill=0;" edge="1" parent="1" source="EQvhAUE2dKe5d7yDT0TL-13" target="EQvhAUE2dKe5d7yDT0TL-8">
          <mxGeometry relative="1" as="geometry">
            <mxPoint x="230" y="310" as="sourcePoint" />
            <mxPoint x="390" y="310" as="targetPoint" />
          </mxGeometry>
        </mxCell>
        <mxCell id="EQvhAUE2dKe5d7yDT0TL-76" value="" style="endArrow=block;html=1;rounded=0;entryX=0.25;entryY=1.033;entryDx=0;entryDy=0;entryPerimeter=0;startArrow=none;startFill=0;endFill=0;" edge="1" parent="1" target="EQvhAUE2dKe5d7yDT0TL-37">
          <mxGeometry relative="1" as="geometry">
            <mxPoint x="530" y="200" as="sourcePoint" />
            <mxPoint x="220" y="170" as="targetPoint" />
          </mxGeometry>
        </mxCell>
        <mxCell id="EQvhAUE2dKe5d7yDT0TL-77" value="" style="endArrow=block;html=1;rounded=0;exitX=0.2;exitY=-0.005;exitDx=0;exitDy=0;entryX=0.783;entryY=1.033;entryDx=0;entryDy=0;entryPerimeter=0;startArrow=none;startFill=0;endFill=0;exitPerimeter=0;" edge="1" parent="1" source="EQvhAUE2dKe5d7yDT0TL-55" target="EQvhAUE2dKe5d7yDT0TL-37">
          <mxGeometry relative="1" as="geometry">
            <mxPoint x="840" y="142" as="sourcePoint" />
            <mxPoint x="840" y="90" as="targetPoint" />
          </mxGeometry>
        </mxCell>
      </root>
    </mxGraphModel>
  </diagram>
</mxfile>
